<?xml version="1.0" encoding="UTF-8"?><svg id="Layer_1" xmlns="http://www.w3.org/2000/svg" xmlns:xlink="http://www.w3.org/1999/xlink" viewBox="0 0 600 600"><defs><style>.cls-1,.cls-2,.cls-3{stroke-width:0px;}.cls-2{fill:none;}.cls-4{clip-path:url(#clippath);}.cls-3{fill:#f4e9e1;}</style><clipPath id="clippath"><rect class="cls-2" x="139.92" y="139.92" width="320.16" height="320.16"/></clipPath></defs><rect class="cls-1" width="600" height="600"/><g class="cls-4"><path class="cls-3" d="M139.92,139.92h91.6v91.74h-91.6v-91.74h0ZM254.2,139.92h91.6v91.74h-91.6v-91.74h0ZM414.28,139.92c-25.25,0-45.8,20.54-45.8,45.8v.14c0,25.25,20.54,45.8,45.8,45.8s45.8-20.54,45.8-45.8v-.14c0-25.25-20.54-45.8-45.8-45.8ZM185.72,254.13c-25.25,0-45.8,20.54-45.8,45.8v.14c0,25.25,20.54,45.8,45.8,45.8s45.8-20.54,45.8-45.8v-.14c0-25.25-20.54-45.8-45.8-45.8h0ZM254.2,254.13h91.6v91.74h-91.6v-91.74h0ZM368.49,254.13h91.6v91.74h-91.6v-91.74ZM139.92,368.34h91.6v91.74h-91.6v-91.74h0ZM300,368.34c-25.25,0-45.8,20.54-45.8,45.8v.14c0,25.25,20.54,45.8,45.8,45.8s45.8-20.54,45.8-45.8v-.14c0-25.25-20.54-45.8-45.8-45.8ZM368.49,368.34h91.6v91.74h-91.6v-91.74Z"/></g></svg>